<svg width="137" height="36" viewBox="0 0 137 36" fill="none" xmlns="http://www.w3.org/2000/svg">
<path d="M50.296 26L46.6 19.472H45.016V26H41.656V9.248H47.944C49.24 9.248 50.344 9.48 51.256 9.944C52.168 10.392 52.848 11.008 53.296 11.792C53.76 12.56 53.992 13.424 53.992 14.384C53.992 15.488 53.672 16.488 53.032 17.384C52.392 18.264 51.44 18.872 50.176 19.208L54.184 26H50.296ZM45.016 16.952H47.824C48.736 16.952 49.416 16.736 49.864 16.304C50.312 15.856 50.536 15.24 50.536 14.456C50.536 13.688 50.312 13.096 49.864 12.68C49.416 12.248 48.736 12.032 47.824 12.032H45.016V16.952ZM64.519 12.512C65.527 12.512 66.423 12.736 67.207 13.184C67.991 13.616 68.599 14.264 69.031 15.128C69.479 15.976 69.703 17 69.703 18.2V26H66.343V18.656C66.343 17.6 66.079 16.792 65.551 16.232C65.023 15.656 64.303 15.368 63.391 15.368C62.463 15.368 61.727 15.656 61.183 16.232C60.655 16.792 60.391 17.6 60.391 18.656V26H57.031V8.24H60.391V14.36C60.823 13.784 61.399 13.336 62.119 13.016C62.839 12.68 63.639 12.512 64.519 12.512ZM85.6182 12.704L77.3862 32.288H73.8102L76.6902 25.664L71.3622 12.704H75.1302L78.5622 21.992L82.0422 12.704H85.6182ZM91.3414 15.464V21.896C91.3414 22.344 91.4454 22.672 91.6534 22.88C91.8774 23.072 92.2454 23.168 92.7574 23.168H94.3174V26H92.2054C89.3734 26 87.9574 24.624 87.9574 21.872V15.464H86.3734V12.704H87.9574V9.416H91.3414V12.704H94.3174V15.464H91.3414ZM104.222 12.512C105.23 12.512 106.126 12.736 106.91 13.184C107.694 13.616 108.302 14.264 108.734 15.128C109.182 15.976 109.406 17 109.406 18.2V26H106.046V18.656C106.046 17.6 105.782 16.792 105.254 16.232C104.726 15.656 104.006 15.368 103.094 15.368C102.166 15.368 101.43 15.656 100.886 16.232C100.358 16.792 100.094 17.6 100.094 18.656V26H96.7341V8.24H100.094V14.36C100.526 13.784 101.102 13.336 101.822 13.016C102.542 12.68 103.342 12.512 104.222 12.512ZM129.113 12.512C130.745 12.512 132.057 13.016 133.049 14.024C134.057 15.016 134.561 16.408 134.561 18.2V26H131.201V18.656C131.201 17.616 130.937 16.824 130.409 16.28C129.881 15.72 129.161 15.44 128.249 15.44C127.337 15.44 126.609 15.72 126.065 16.28C125.537 16.824 125.273 17.616 125.273 18.656V26H121.913V18.656C121.913 17.616 121.649 16.824 121.121 16.28C120.593 15.72 119.873 15.44 118.961 15.44C118.033 15.44 117.297 15.72 116.753 16.28C116.225 16.824 115.961 17.616 115.961 18.656V26H112.601V12.704H115.961V14.312C116.393 13.752 116.945 13.312 117.617 12.992C118.305 12.672 119.057 12.512 119.873 12.512C120.913 12.512 121.841 12.736 122.657 13.184C123.473 13.616 124.105 14.24 124.553 15.056C124.985 14.288 125.609 13.672 126.425 13.208C127.257 12.744 128.153 12.512 129.113 12.512Z" fill="#121212"/>
<path fill-rule="evenodd" clip-rule="evenodd" d="M14.1497 15.7262C13.7657 23.0669 7.59189 28.9146 0 29V1C7.59189 1.08547 13.7657 6.9331 14.1497 14.2738C14.5287 7.02987 20.5459 1.2399 28 1.0064V28.9937C20.5459 28.7602 14.5287 22.9702 14.1497 15.7262Z" fill="#FF6428"/>
</svg>
